<?xml version="1.0" encoding="UTF-8" standalone="no"?>
<svg
   xmlns:dc="http://purl.org/dc/elements/1.1/"
   xmlns:cc="http://creativecommons.org/ns#"
   xmlns:rdf="http://www.w3.org/1999/02/22-rdf-syntax-ns#"
   xmlns:svg="http://www.w3.org/2000/svg"
   xmlns="http://www.w3.org/2000/svg"
   xmlns:sodipodi="http://sodipodi.sourceforge.net/DTD/sodipodi-0.dtd"
   xmlns:inkscape="http://www.inkscape.org/namespaces/inkscape"
   version="1.0"
   width="1219.7015pt"
   height="792.37085pt"
   viewBox="0 0 1219.7015 792.37085"
   preserveAspectRatio="xMidYMid meet"
   id="svg6"
   sodipodi:docname="bulgaria.svg"
   inkscape:version="0.92.4 (unknown)">
  <metadata
     id="metadata12">
    <rdf:RDF>
      <cc:Work
         rdf:about="">
        <dc:format>image/svg+xml</dc:format>
        <dc:type
           rdf:resource="http://purl.org/dc/dcmitype/StillImage" />
      </cc:Work>
    </rdf:RDF>
  </metadata>
  <defs
     id="defs10" />
  <sodipodi:namedview
     pagecolor="#ffffff"
     bordercolor="#666666"
     borderopacity="1"
     objecttolerance="10"
     gridtolerance="10"
     guidetolerance="10"
     inkscape:pageopacity="0"
     inkscape:pageshadow="2"
     inkscape:window-width="1920"
     inkscape:window-height="1016"
     id="namedview8"
     showgrid="false"
     inkscape:zoom="1"
     inkscape:cx="628.47985"
     inkscape:cy="264.26451"
     inkscape:window-x="0"
     inkscape:window-y="27"
     inkscape:window-maximized="1"
     inkscape:current-layer="svg6" />
  <g
     transform="matrix(0.1,0,0,-0.1,-29.023145,1042.5744)"
     id="g4"
     style="fill:#000000;stroke:none">
    <path
       d="m 883,10422 c -22,-14 -113,-281 -113,-332 0,-27 -4,-60 -10,-74 -8,-22 -13,-24 -44,-19 -33,5 -35,4 -47,-36 -7,-23 -17,-45 -23,-50 -6,-4 -56,-18 -111,-31 -55,-13 -108,-31 -119,-39 -35,-30 -38,-45 -65,-358 -7,-77 -12,-98 -35,-127 -37,-49 -34,-88 8,-131 29,-28 35,-44 41,-92 11,-104 22,-131 86,-193 33,-32 68,-62 78,-65 25,-8 41,-55 41,-124 0,-95 18,-219 39,-265 22,-50 87,-125 144,-167 30,-21 46,-27 68,-22 26,5 36,-1 87,-54 45,-48 65,-62 98,-67 30,-5 52,-19 80,-48 21,-22 58,-53 81,-69 32,-22 45,-40 54,-72 16,-59 35,-93 79,-141 20,-22 52,-69 69,-103 38,-77 66,-97 118,-88 33,5 42,2 62,-18 22,-24 22,-27 10,-88 -23,-119 -57,-169 -113,-169 -44,0 -53,-13 -70,-104 -9,-42 -18,-81 -21,-86 -3,-5 -25,-14 -48,-20 -100,-26 -141,-61 -172,-146 -43,-118 -52,-132 -115,-178 -39,-27 -68,-42 -79,-39 -29,11 -80,53 -86,72 -15,48 -62,32 -101,-34 -25,-44 -27,-45 -65,-39 -30,5 -40,3 -45,-9 -3,-9 -38,-40 -78,-71 -69,-51 -74,-57 -84,-108 -11,-56 -8,-69 43,-155 19,-30 19,-33 2,-100 -10,-37 -17,-86 -16,-108 1,-22 -10,-84 -24,-139 -38,-138 -34,-148 78,-212 141,-81 159,-114 126,-221 -28,-91 -60,-145 -96,-161 -54,-23 -59,-28 -83,-73 -12,-24 -38,-60 -56,-79 -66,-69 -73,-119 -26,-190 16,-25 30,-50 30,-56 0,-17 73,-127 115,-173 21,-23 46,-41 56,-41 12,0 32,-19 52,-47 59,-86 77,-102 115,-109 61,-10 69,-13 108,-49 21,-19 45,-35 54,-35 9,0 25,-9 35,-20 13,-15 31,-20 66,-20 38,0 58,-7 91,-30 24,-17 57,-41 74,-52 17,-12 42,-37 54,-56 30,-42 70,-191 69,-252 -2,-61 23,-108 67,-126 l 34,-14 v -81 c 0,-107 8,-121 68,-117 41,3 48,0 59,-22 18,-34 17,-191 -1,-234 -10,-25 -23,-36 -44,-41 -51,-11 -54,-22 -47,-152 3,-65 7,-167 8,-228 1,-66 7,-119 14,-132 18,-31 16,-57 -8,-87 -15,-19 -20,-36 -16,-59 2,-18 -2,-47 -9,-66 -8,-19 -12,-42 -9,-51 7,-22 47,-40 87,-40 17,0 74,-14 127,-31 71,-23 122,-32 198,-36 l 103,-6 32,35 c 18,19 44,63 57,96 l 24,62 h 73 c 41,0 94,-5 118,-12 42,-11 47,-10 85,16 39,27 43,28 130,21 82,-6 93,-5 126,15 l 35,22 17,-33 c 24,-44 58,-79 78,-79 8,0 34,17 58,38 76,68 71,66 116,37 22,-15 58,-29 80,-32 43,-6 57,4 133,95 21,26 34,32 65,32 45,0 112,29 140,59 l 20,22 102,-26 101,-25 50,21 c 70,30 84,56 77,140 -4,43 -2,71 5,75 5,4 47,-12 92,-35 44,-22 91,-41 102,-41 15,0 37,21 73,70 28,39 55,70 61,70 6,0 15,-13 21,-28 5,-16 31,-44 56,-63 93,-69 81,-67 177,-30 66,26 95,32 126,28 35,-4 46,-1 74,24 43,37 87,54 97,37 4,-7 5,-40 2,-74 -5,-55 -3,-68 20,-106 47,-79 93,-114 185,-138 77,-21 88,-27 139,-79 30,-31 66,-73 80,-94 32,-51 64,-65 98,-43 14,9 31,29 37,44 21,54 25,57 107,74 81,17 83,17 123,-4 23,-12 65,-24 95,-26 48,-4 57,-9 84,-43 16,-21 54,-50 85,-65 31,-15 60,-37 66,-50 11,-24 47,-44 81,-44 12,0 38,-5 58,-10 32,-9 38,-16 44,-47 19,-101 161,-150 295,-103 30,11 67,19 81,20 14,0 50,18 79,40 36,27 64,40 85,40 24,0 41,10 69,40 20,22 42,40 47,40 6,0 31,-14 55,-32 57,-41 99,-42 143,-5 38,32 48,33 81,7 38,-30 66,-25 92,15 21,32 67,59 162,95 26,9 31,7 63,-27 33,-37 36,-38 101,-38 62,0 72,3 126,40 52,35 64,39 113,37 80,-3 123,12 169,60 34,35 144,190 144,202 0,1 -9,13 -20,26 -30,34 -35,66 -20,134 24,116 24,153 0,173 -31,26 -60,87 -60,127 0,32 -5,39 -55,71 -49,31 -55,39 -55,68 0,23 8,41 26,58 14,13 32,36 40,50 14,28 40,37 161,57 50,9 58,7 149,-34 109,-49 125,-47 117,14 -3,23 3,60 16,99 12,34 21,75 21,90 0,62 24,68 191,47 76,-9 145,-14 153,-11 21,8 96,163 96,196 0,15 -7,35 -15,45 -23,31 -18,49 27,105 47,58 38,56 163,31 33,-6 80,-18 103,-26 51,-16 74,-8 94,34 12,24 20,28 78,33 36,3 76,12 90,21 14,9 63,21 110,27 88,10 148,30 169,54 6,8 25,54 41,103 17,48 36,91 43,96 27,17 58,6 107,-37 38,-34 59,-45 84,-45 44,0 118,40 134,73 16,33 25,33 70,5 19,-13 67,-34 105,-48 92,-33 128,-74 138,-161 4,-35 14,-68 25,-80 53,-58 299,-179 365,-179 11,0 43,25 71,56 50,53 54,55 90,49 24,-4 64,0 107,11 l 69,18 31,-31 c 35,-36 80,-49 110,-33 23,12 24,16 21,74 -1,22 4,42 11,46 6,5 43,-1 80,-11 67,-19 237,-27 273,-13 10,4 16,18 16,38 0,42 -143,255 -252,373 -46,50 -107,118 -136,152 -29,33 -73,73 -98,87 -24,14 -44,31 -45,37 -1,7 0,44 1,82 1,61 -4,87 -40,185 -71,198 -64,184 -105,194 -31,7 -40,16 -55,51 -10,24 -28,48 -39,54 -11,6 -84,13 -163,16 -79,3 -151,8 -160,11 -26,8 -22,31 10,69 15,18 39,55 54,84 27,49 30,51 70,51 24,1 54,7 68,15 14,8 39,14 56,15 54,0 68,19 60,81 -12,82 -10,89 30,130 27,28 49,40 80,45 53,8 84,39 91,94 3,23 11,44 17,46 7,3 57,-2 112,-11 197,-31 192,-31 199,-4 3,15 -4,48 -20,86 -29,72 -32,123 -9,159 13,18 15,35 9,67 -11,60 -7,143 10,210 19,74 19,112 -1,237 -21,132 -8,237 42,341 40,83 45,147 15,186 -32,40 -5,85 63,102 23,6 54,20 68,31 30,23 110,166 157,281 17,42 45,88 61,104 32,30 48,32 161,20 65,-8 107,6 160,52 67,58 67,58 191,9 62,-24 133,-50 157,-57 l 44,-13 26,34 c 14,19 49,60 78,90 60,64 137,190 153,251 16,57 5,115 -28,163 -25,36 -27,48 -33,180 -3,78 -3,166 0,197 4,31 5,61 3,68 -3,8 -39,10 -135,5 -119,-6 -145,-4 -258,20 -139,29 -177,31 -228,12 -33,-12 -40,-10 -125,35 -50,25 -133,64 -185,85 -108,45 -124,59 -197,172 -64,100 -94,176 -94,240 0,57 -29,125 -64,147 -31,21 -38,17 -80,-49 -40,-63 -57,-69 -188,-59 l -90,6 -30,66 c -31,71 -64,110 -116,143 -48,29 -79,18 -103,-37 -23,-51 -12,-49 -175,-33 -97,9 -131,9 -164,-1 l -42,-12 -56,53 c -32,30 -73,64 -92,77 -19,13 -64,52 -100,86 -56,54 -78,67 -154,94 -64,23 -104,31 -145,30 -36,-1 -68,4 -88,15 -39,20 -67,20 -146,1 -34,-8 -110,-18 -168,-23 -103,-8 -111,-10 -245,-74 -108,-52 -153,-68 -202,-73 -37,-3 -114,-25 -182,-50 -117,-44 -118,-45 -301,-54 -233,-11 -286,-28 -408,-131 -54,-46 -96,-73 -124,-80 -23,-6 -51,-14 -62,-17 -42,-11 -192,-109 -245,-158 -30,-29 -82,-72 -115,-97 -77,-58 -142,-129 -151,-165 -12,-46 -104,-161 -135,-168 -18,-4 -39,-24 -63,-60 -21,-33 -45,-56 -58,-59 -13,-3 -63,-12 -113,-21 -104,-20 -122,-28 -193,-89 l -54,-46 -66,6 c -48,4 -79,1 -111,-10 -25,-9 -75,-16 -121,-16 -64,0 -88,5 -141,29 -36,16 -90,37 -122,46 -36,10 -75,31 -103,56 -45,39 -89,50 -110,29 -5,-5 -27,-16 -49,-23 -37,-13 -45,-12 -100,8 -33,13 -108,33 -165,46 l -105,22 -210,-23 -211,-22 -139,67 c -149,72 -234,105 -272,105 -30,0 -68,-19 -159,-81 -80,-54 -154,-79 -232,-79 -30,0 -101,-12 -159,-27 -104,-27 -106,-28 -117,-9 -23,41 -55,65 -92,71 -22,3 -73,15 -114,26 -41,11 -115,27 -165,35 -133,21 -226,49 -317,95 -89,45 -175,66 -313,78 -78,7 -102,14 -184,54 -51,25 -116,51 -145,56 -170,35 -292,53 -324,48 -260,-41 -262,-42 -350,-121 -34,-31 -71,-56 -82,-56 -11,0 -45,12 -77,26 -71,31 -201,69 -267,78 -104,13 -129,57 -130,221 -1,88 3,119 18,153 21,46 24,47 121,57 73,7 153,44 206,95 74,70 45,140 -84,203 -29,14 -78,30 -109,36 -32,5 -72,18 -89,27 -80,41 -168,105 -187,136 -34,56 -55,68 -153,93 -52,13 -101,26 -109,29 -8,3 -20,2 -27,-2 z"
       id="path2"
       inkscape:connector-curvature="0"
       style="stroke:#000000;stroke-opacity:1;stroke-width:67.49999851;stroke-miterlimit:4;stroke-dasharray:none" />
  </g>
  <path
     style="fill:#ffffff;stroke-width:0.1;stroke-miterlimit:4;stroke-dasharray:none;stroke:#000000;stroke-opacity:0.87786257"
     d="m 761.13249,1053.9507 c -5.44885,-1.9919 -14.14214,-10.5879 -14.14214,-13.984 0,-3.6482 -7.35994,-7.9216 -13.64301,-7.9216 -2.48864,0 -7.24004,-2.3865 -10.55866,-5.3033 -16.98848,-14.9316 -25.75681,-20.7458 -35.07738,-23.2595 -20.73025,-5.59079 -37.41302,-3.115 -41.64844,6.1807 -4.80091,10.5369 -8.86368,9.5767 -22.69559,-5.3634 -9.5197,-10.28238 -15.6988,-14.80572 -23.06146,-16.88183 -17.7584,-5.00749 -27.73513,-16.62406 -27.73513,-32.2938 0,-11.6877 -2.26354,-12.66108 -12.96363,-5.57469 -3.88908,2.57564 -9.85452,4.68998 -13.25653,4.69851 -3.40201,0.009 -10.44498,1.51837 -15.65103,3.35518 -8.96079,3.16154 -9.91618,3.03346 -17.91516,-2.402 -4.64727,-3.15791 -9.65029,-7.98519 -11.11782,-10.72728 -2.57337,-4.80837 -2.98102,-4.62243 -11.46663,5.23009 l -8.79841,10.21572 -12.47676,-5.1851 c -6.86223,-2.85181 -13.34056,-5.18512 -14.39629,-5.18512 -1.05576,0 -2.24014,5.55963 -2.63197,12.35471 -0.63218,10.96282 -1.47418,12.71843 -7.474,15.58334 -5.52562,2.63847 -9.21606,2.70777 -20.18913,0.37913 -12.32739,-2.61604 -14.0908,-2.44518 -21.5227,2.08551 -4.45232,2.71426 -10.45592,4.939 -13.34129,4.94383 -2.98654,0.005 -8.47951,3.56206 -12.7531,8.2584 -8.295,9.1156 -12.9623,10.0333 -23.44851,4.61069 -6.79612,-3.51439 -7.33632,-3.38989 -15.79285,3.63971 l -8.75603,7.2787 -6.40811,-7.5872 c -5.82135,-6.89255 -6.96601,-7.33303 -12.50169,-4.81081 -3.44887,1.5714 -9.97603,2.15562 -15.03882,1.34605 -5.72375,-0.91526 -11.40754,-0.20435 -15.78255,1.97434 -4.63332,2.30722 -12.15592,3.12852 -23.33653,2.54802 l -16.49916,-0.8566 -6.0611,12.4277 -6.06111,12.4277 -12.79508,-0.5884 c -12.54509,-0.577 -40.57957,-6.199 -51.13018,-10.2537 -4.76737,-1.8321 -5.173,-3.1236 -3.80164,-12.1036 0.84433,-5.52893 2.41866,-11.77973 3.49851,-13.89068 1.07985,-2.11095 0.94248,-12.71755 -0.30526,-23.57023 -2.97662,-25.89024 -2.94927,-53.90897 0.0526,-53.90897 1.29636,0 4.47834,-2.12132 7.07106,-4.71405 3.554,-3.55399 4.71405,-7.85673 4.71405,-17.48488 0,-16.95131 -1.52703,-20.22748 -9.42809,-20.22748 -7.65469,0 -9.42809,-3.36139 -9.42809,-17.87045 0,-5.72759 -0.85794,-10.41382 -1.90653,-10.41382 -5.88123,0 -9.91238,-7.27276 -12.232,-22.06824 -1.39481,-8.89662 -4.54186,-20.10747 -6.99345,-24.91299 -5.05605,-9.91067 -18.67562,-19.8463 -30.36082,-22.14852 -4.338327,-0.85475 -12.611617,-4.74212 -18.385083,-8.63858 -5.773468,-3.89647 -12.061349,-7.08448 -13.973074,-7.08448 -1.911724,0 -11.810646,-8.22012 -21.997604,-18.26693 -17.813606,-17.56854 -33.215775,-40.46494 -33.215775,-49.37762 0,-5.57117 13.820727,-24.88721 25.569563,-35.73635 9.978413,-9.21428 15.972529,-24.78079 13.43514,-34.89053 -0.859201,-3.42334 -6.447583,-8.86328 -14.198921,-13.82175 -7.030145,-4.49713 -13.721332,-9.85495 -14.869303,-11.90626 -1.265528,-2.26135 -0.925414,-9.45419 0.863936,-18.27079 7.071183,-34.84161 7.436635,-40.81376 3.006078,-49.1249 -6.968304,-13.07165 -5.66013,-18.15848 7.890247,-30.68125 6.747757,-6.23605 14.223255,-11.33824 16.612215,-11.33824 2.38896,0 6.862587,-2.91682 9.941391,-6.48182 l 5.597825,-6.48181 6.79246,6.48181 c 8.107086,7.73632 10.668934,7.95288 20.704973,1.75026 5.036612,-3.1128 9.451132,-8.95905 12.903482,-17.08842 6.77204,-15.94634 12.90953,-22.44128 24.03779,-25.43781 4.94579,-1.33176 8.99826,-3.70632 9.00549,-5.27681 0.007,-1.57048 1.1198,-6.84036 2.47239,-11.71084 1.88255,-6.77882 4.33979,-9.64114 10.47871,-12.20615 6.79204,-2.8379 8.58785,-5.30592 11.73302,-16.12493 2.04246,-7.02579 3.05677,-14.48574 2.25402,-16.57765 -1.58362,-4.12684 -9.16758,-7.41206 -12.44082,-5.38907 -1.11698,0.69032 -3.64238,-0.0368 -5.612,-1.61562 -4.99088,-4.00091 -27.75465,-39.38114 -27.75465,-43.13724 0,-3.36743 -24.853279,-24.55167 -28.803915,-24.55167 -1.344498,0 -6.553624,-3.71231 -11.575838,-8.24958 -5.022214,-4.53727 -11.564635,-8.24958 -14.538712,-8.24958 -6.666732,0 -21.355301,-14.60979 -26.070655,-25.93085 -1.890652,-4.53925 -4.199259,-16.98527 -5.130238,-27.65781 C 36.941025,209.70992 36.82601,209.43801 26.952772,201.34763 16.660313,192.91374 12.98155,186.19799 10.536722,171.37941 9.7561672,166.64831 7.5546089,161.4803 5.6443698,159.89494 1.4943465,156.45073 1.1772765,149.70887 4.8431728,142.85908 6.3127531,140.11314 8.9331067,125.59879 10.66618,110.60497 14.292204,79.234146 15.370894,77.637386 36.066157,73.00599 c 10.858217,-2.429963 13.498714,-3.992853 14.676907,-8.687146 1.0105,-4.026151 3.077107,-5.724108 6.966892,-5.724108 4.581663,0 5.759356,-1.516074 6.866049,-8.838834 0.734698,-4.86136 4.030528,-17.589282 7.324064,-28.284272 6.670668,-21.66143951 6.714799,-21.68859939 25.956294,-15.9744891 7.355547,2.1843627 14.722007,6.6271401 19.873237,11.9857261 10.22364,10.635173 23.87723,18.700367 37.64808,22.238765 15.48688,3.979333 28.28427,12.972136 28.28427,19.875534 0,10.114694 -20.20184,22.51058 -36.7578,22.554651 -9.63886,0.02566 -12.73968,7.012871 -12.73968,28.706953 0,23.84642 1.84764,26.41656 22.76112,31.66157 7.575,1.89978 19.8644,5.66389 27.30978,8.36469 12.68864,4.60279 13.87041,4.66642 18.85618,1.01531 2.92552,-2.14238 8.78582,-6.41914 13.02288,-9.50391 12.73658,-9.27281 37.17366,-12.23326 63.63329,-7.7089 12.01174,2.0539 27.87408,6.49707 35.24963,9.8737 7.37554,3.37664 21.40718,7.25164 31.1814,8.61111 9.77424,1.35947 26.79237,5.95283 37.81808,10.20747 11.0257,4.25463 33.83531,10.67469 50.68803,14.26678 22.92091,4.88551 32.15547,7.92965 36.65092,12.08186 l 6.00963,5.55079 18.73911,-3.63475 c 33.8071,-6.55742 37.54515,-7.73163 51.64724,-16.22345 7.67525,-4.6218 15.60839,-8.39488 17.62919,-8.38462 2.02081,0.0104 15.14863,5.25544 29.17291,11.65597 l 25.49872,11.63733 27.96841,-3.2779 c 27.55699,-3.22969 28.29134,-3.19096 49.92598,2.63304 18.87405,5.08085 23.15629,5.5204 30.49308,3.1299 7.67862,-2.50186 9.57154,-2.17746 18.85618,3.23158 5.6764,3.30694 16.53367,8.32354 24.12727,11.148 12.33335,4.58742 16.43214,4.95642 38.4131,3.4582 22.68387,-1.54614 25.53002,-2.29863 36.42493,-9.63037 7.72012,-5.19525 16.02193,-8.5108 23.94035,-9.56122 11.09274,-1.4715 13.58197,-3.06806 29.31802,-18.80411 9.45783,-9.45784 17.23422,-18.57323 17.28084,-20.25641 0.28279,-10.20977 51.69544,-52.02549 71.80443,-58.401062 5.18545,-1.644054 14.78483,-7.066359 21.33203,-12.049566 16.9566,-12.906007 24.9722,-15.549411 52.9142,-17.450158 15.5761,-1.059562 30.427,-3.642156 40.0694,-6.968132 8.4263,-2.906532 19.5633,-6.065133 24.7487,-7.019107 5.1855,-0.953977 17.8406,-5.421329 28.1225,-9.927452 17.3767,-7.615472 47.7652,-13.868023 64.9799,-13.369876 12.3973,0.358746 38.292,5.631101 45.1991,9.202889 3.9685,2.052174 16.0094,11.180517 26.7577,20.285208 l 19.5424,16.553982 25.0866,0.643948 c 24.1674,0.620357 25.2213,0.438126 28.7676,-4.974187 2.0247,-3.089974 5.4821,-5.618135 7.6832,-5.618135 4.8295,0 14.7211,10.168266 19.9201,20.477225 3.1352,6.216631 5.5853,7.782926 14.1939,9.073861 14.6766,2.200891 23.1017,-0.277045 28.5401,-8.394037 2.58,-3.850748 5.322,-7.004409 6.0934,-7.008137 4.0257,-0.01956 9.6115,10.2017 11.2543,20.593506 1.9874,12.57217 8.854,27.55261 18.4501,40.2513 8.6669,11.46913 52.7368,31.93194 64.7495,30.06491 4.7556,-0.73912 16.9532,0.24565 27.1058,2.18838 10.1525,1.94274 26.149,3.53243 35.5476,3.53265 l 17.0884,4e-4 v 25.62763 c 0,20.40048 0.95,27.77524 4.6576,36.15694 3.5594,8.04661 4.1609,12.26135 2.5509,17.87504 -2.4289,8.46919 -15.6018,28.61221 -26.4177,40.39593 l -7.4319,8.09699 -19.0885,-6.40099 c -10.4987,-3.52055 -20.4706,-6.3687 -22.1598,-6.32922 -1.6893,0.0396 -6.9736,2.72344 -11.7431,5.96435 -6.8984,4.68757 -11.6006,5.89255 -22.9946,5.89255 -7.8777,0 -16.0251,1.32583 -18.1053,2.94628 -2.0802,1.62046 -8.1564,11.96189 -13.5025,22.98097 -12.175,25.09433 -13.2461,26.47 -25.4614,32.70178 -10.4524,5.33241 -11.6816,8.18962 -7.4855,17.39903 2.0001,4.38974 1.4477,8.2034 -2.6621,18.37784 -4.6597,11.53577 -5.2641,17.86166 -5.9564,62.33611 -0.4238,27.22361 -1.7149,52.67945 -2.8691,56.56854 -1.43,4.8178 -1.0361,10.71281 1.2358,18.4994 1.8341,6.28559 2.7554,12.00754 2.0475,12.71545 -0.7079,0.70793 -9.9362,0.27978 -20.5073,-0.95141 l -19.2203,-2.23851 -3.2055,7.67185 c -2.2808,5.45886 -6.2448,9.01629 -13.7419,12.33262 -10.8603,4.80404 -12.3169,7.33091 -13.6115,23.61235 -0.6128,7.70746 -1.1767,8.14144 -15.3118,11.78511 -13.4316,3.46233 -15.2796,4.73887 -21.8025,15.06069 -3.9198,6.20274 -7.1269,12.15043 -7.1269,13.2171 0,1.93342 22.262,4.96797 36.4459,4.96797 5.5073,0 9.3023,2.06947 14.4429,7.8758 3.835,4.33171 8.3388,8.3312 10.0085,8.88777 4.2501,1.41669 16.8845,38.24519 16.8845,49.21732 0,8.15702 1.8515,10.94474 18.3824,27.67679 28.9316,29.2837 54.746,65.51505 50.9986,71.5784 -1.1881,1.92238 -6.705,2.26236 -18.4496,1.13691 -32.7947,-3.14265 -30.8097,-3.46268 -31.6353,5.1004 -0.5967,6.18837 -1.772,7.66033 -6.1165,7.66033 -2.9579,0 -7.2106,-2.02511 -9.4506,-4.50024 -3.3298,-3.67939 -5.4358,-4.10931 -11.5456,-2.35703 -4.1101,1.17878 -10.5093,2.14322 -14.2204,2.14322 -3.9505,0 -10.4698,2.94814 -15.7273,7.11215 l -8.9798,7.11213 -12.6877,-4.74704 c -19.8108,-7.4122 -34.4848,-17.67838 -36.1503,-25.29154 -3.6328,-16.60454 -5.9029,-19.23618 -24.0068,-27.82937 -17.1087,-8.12083 -17.8222,-8.25495 -20.8582,-3.92043 -1.729,2.46841 -6.3819,5.82936 -10.3398,7.46879 -6.544,2.71062 -8.0326,2.4011 -16.4262,-3.41566 -12.4426,-8.62269 -16.7666,-7.24845 -22.0149,6.99659 -2.3841,6.47111 -5.596,13.05267 -7.1376,14.6257 -2.6165,2.6699 -22.5256,7.98505 -45.8817,12.2491 -5.5443,1.0122 -11.5352,3.82969 -13.3131,6.2611 -2.9697,4.06131 -4.3654,4.18673 -17.1671,1.54257 -22.0124,-4.54658 -25.5605,-3.96123 -31.1887,5.14534 -4.0853,6.61005 -4.4954,9.04043 -2.3284,13.79648 2.1853,4.7963 1.6356,7.72563 -3.2495,17.31452 l -5.8799,11.54151 h -22.9253 -22.9253 l -3.1315,11.78512 c -1.7223,6.48181 -3.1782,14.70192 -3.2355,18.26692 -0.1244,7.75831 -1.1477,7.85973 -16.8507,1.67016 -10.637,-4.19269 -13.8084,-4.47923 -24.65508,-2.22745 -9.78169,2.03067 -13.74868,4.28966 -18.52132,10.54692 -7.79222,10.21611 -7.64945,14.0421 0.75585,20.25639 3.75613,2.77705 7.44388,8.12181 8.19497,11.87725 0.75109,3.75547 3.43421,9.73521 5.96247,13.28833 4.09603,5.75641 4.33847,8.08181 2.22543,21.34421 -1.91827,12.03988 -1.717,15.86818 1.0533,20.03469 3.12294,4.69688 2.84856,5.98146 -3.11398,14.57882 -11.10683,16.0149 -18.8546,21.7595 -31.30314,23.21 -6.23155,0.7261 -14.84203,3.4907 -19.13438,6.1435 -9.97325,6.1638 -20.26118,6.1382 -28.1537,-0.07 -5.39937,-4.2471 -7.27886,-4.5442 -14.23179,-2.2495 -4.40598,1.4541 -10.98236,5.3976 -14.61416,8.7635 -5.68733,5.2708 -7.50155,5.7806 -13.07937,3.6752 -4.8859,-1.8442 -7.51657,-1.6554 -10.71335,0.769 -5.65818,4.2909 -10.68015,4.1486 -20.60488,-0.5842 -7.81712,-3.7278 -8.53811,-3.7121 -12.95008,0.2806 -14.60309,13.2157 -53.49635,25.481 -66.1417,20.8584 z"
     id="path3719"
     inkscape:connector-curvature="0"
     transform="scale(0.74999998)" />
</svg>
